# xmcd
#
# Track frame offsets: 
#        150
#        20644
#        36594
#        55223
#        73486
#        88207
#        107129
#        122419
#        141224
#        160399
#        175168
#        192078
#        206488
#
# Disc length: 3352 seconds
#
# Revision: 0
# Processed by: cddbd v1.5.2PL0 Copyright (c) Steve Scherf et al.
# Submitted via: ExactAudioCopy v0.90b4
#
DISCID=c30d160d
DTITLE=Sick City - Arkham
DYEAR=2009
DGENRE=Rock
TTITLE0=United We Fall
TTITLE1=Cocaine
TTITLE2=Believe In God
TTITLE3=No Sports
TTITLE4=Hals über Kopf
TTITLE5=Crack Whore
TTITLE6=Love In Her Breath
TTITLE7=My Daddy Said
TTITLE8=Arkham
TTITLE9=The Rainbow Active Song
TTITLE10=In My Head
TTITLE11=Julia
TTITLE12=Pretty Boy
EXTD=
EXTT0=
EXTT1=
EXTT2=
EXTT3=
EXTT4=
EXTT5=
EXTT6=
EXTT7=
EXTT8=
EXTT9=
EXTT10=
EXTT11=
EXTT12=
PLAYORDER=
